<?xml version="1.0" encoding="utf-8"?>
<!-- Generator: Adobe Illustrator 22.1.0, SVG Export Plug-In . SVG Version: 6.00 Build 0)  -->
<svg version="1.1" id="Ebene_1" xmlns="http://www.w3.org/2000/svg" xmlns:xlink="http://www.w3.org/1999/xlink" x="0px" y="0px"
	 viewBox="0 0 192 192" style="enable-background:new 0 0 192 192;" xml:space="preserve">
<style type="text/css">
	.st0{fill:#FFFFFF;}
</style>
<g id="BG">
</g>
<g id="Ringe">
</g>
<rect class="st0" width="192" height="192"/>
<g>
	<path d="M135.2,75.2c-5,0-9.5,1.7-13.1,4.6c-3.6-2.9-8.1-4.6-13.1-4.6s-9.5,1.7-13.1,4.6c-3.6-2.9-8.1-4.6-13.1-4.6
		s-9.5,1.7-13.1,4.6c-3.6-2.9-8.1-4.6-13.1-4.6C45.3,75.2,36,84.5,36,96s9.3,20.8,20.8,20.8c5,0,9.5-1.7,13.1-4.6
		c3.6,2.9,8.1,4.6,13.1,4.6s9.5-1.7,13.1-4.6c3.6,2.9,8.1,4.6,13.1,4.6s9.5-1.7,13.1-4.6c3.6,2.9,8.1,4.6,13.1,4.6
		c11.5,0,20.8-9.3,20.8-20.8S146.7,75.2,135.2,75.2z M122.2,105.3c-1.9-2.6-3-5.8-3-9.3s1.1-6.7,3-9.3c1.9,2.6,3,5.8,3,9.3
		S124,102.7,122.2,105.3z M96,105.3c-1.9-2.6-3-5.8-3-9.3s1.1-6.7,3-9.3c1.9,2.6,3,5.9,3,9.3S97.9,102.7,96,105.3z M69.8,105.3
		c-1.9-2.6-3-5.8-3-9.3s1.1-6.7,3-9.3c1.9,2.6,3,5.8,3,9.3S71.7,102.7,69.8,105.3z M40.7,96c0-8.9,7.2-16.1,16.1-16.1
		c3.7,0,7.1,1.2,9.8,3.3c-2.7,3.5-4.4,7.9-4.4,12.7c0,4.8,1.6,9.2,4.4,12.7c-2.7,2.1-6.1,3.3-9.8,3.3C47.9,112.1,40.7,104.9,40.7,96
		z M73.1,108.7c2.7-3.5,4.4-7.9,4.4-12.7c0-4.8-1.6-9.2-4.4-12.7c2.7-2.1,6.1-3.3,9.8-3.3c3.7,0,7.1,1.2,9.8,3.3
		c-2.7,3.5-4.4,7.9-4.4,12.7c0,4.8,1.6,9.2,4.4,12.7c-2.7,2.1-6.1,3.3-9.8,3.3C79.2,112.1,75.8,110.8,73.1,108.7z M99.3,108.7
		c2.7-3.5,4.4-7.9,4.4-12.7c0-4.8-1.6-9.2-4.4-12.7c2.7-2.1,6.1-3.3,9.8-3.3c3.7,0,7.1,1.2,9.8,3.3c-2.7,3.5-4.4,7.9-4.4,12.7
		c0,4.8,1.6,9.2,4.4,12.7c-2.7,2.1-6.1,3.3-9.8,3.3C105.4,112.1,102,110.8,99.3,108.7z M135.2,112.1c-3.7,0-7.1-1.2-9.8-3.3
		c2.7-3.5,4.4-7.9,4.4-12.7c0-4.8-1.6-9.2-4.4-12.7c2.7-2.1,6.1-3.3,9.8-3.3c8.9,0,16.1,7.2,16.1,16.1S144.1,112.1,135.2,112.1z"/>
</g>
</svg>
